<?xml version="1.0" encoding="utf-8"?>
<!-- Generator: Adobe Illustrator 26.1.0, SVG Export Plug-In . SVG Version: 6.00 Build 0)  -->
<svg version="1.1" id="Layer_1" xmlns="http://www.w3.org/2000/svg" xmlns:xlink="http://www.w3.org/1999/xlink" x="0px" y="0px"
	 viewBox="0 0 357.93 146.37" style="enable-background:new 0 0 357.93 146.37;" xml:space="preserve">
<style type="text/css">
	.st0{display:none;}
	.st1{display:inline;}
	.st2{fill:none;stroke:#FFFFFF;stroke-miterlimit:10;}
	.st3{font-family:'Montserrat-Bold';}
	.st4{font-size:44.9215px;}
	.st5{display:inline;fill:#FFFFFF;}
	.st6{fill:#FFFFFF;}
	.st7{display:inline;fill:#F79121;}
	.st8{fill:#F79121;}
	.st9{fill:none;stroke:#F7941D;stroke-width:2;stroke-miterlimit:10;}
	.st10{fill:none;stroke:#FFFFFF;stroke-width:2;stroke-miterlimit:10;}
	.st11{display:none;fill:none;stroke:#F7941D;stroke-width:0.75;stroke-miterlimit:10;}
	.st12{font-size:43.7038px;}
</style>
<g class="st0">
	<text transform="matrix(1 0 0 1 153.3115 94.7581)" class="st1"><tspan x="0" y="0" class="st2 st3 st4">a</tspan><tspan x="27" y="0" class="st2 st3 st4">s</tspan><tspan x="49.82" y="0" class="st2 st3 st4">w</tspan><tspan x="91.24" y="0" class="st2 st3 st4">a</tspan></text>
</g>
<g>
	<g class="st0">
		<g class="st1">
			<g class="st0">
				<path class="st5" d="M30.73,62.51c0.85-0.41,1.71-0.82,2.56-1.23c1.09,1.88,1.92,3.4,2.41,4.33c3.55,6.6,7.45,13.01,11.16,19.52
					c0.22,0.38,0.96,1.69,2.44,2.37c0.13,0.06,2.16,0.97,3.42,0.04c0.68-0.5,0.82-1.35,0.91-1.63c2.99-9.8,5.95-19.61,8.91-29.41
					c0.13-0.41,0.31-0.81,0.4-1.23c0.11-0.57,0.08-1.09-0.1-1.56c-0.17-0.43-0.47-0.9-1.54-1.6c-0.45-0.29-1.76-1.16-3.25-1.51
					c-3.72-0.88-7.68,1.59-8.07,1.84c3.05-1.23,4.91-2.3,6.07-3.08c0.27-0.18,0.75-0.51,1.47-0.71c1.7-0.46,3.25,0.21,4.15,0.6
					c0.65,0.28,1.74,0.82,2.78,1.94c1.51,1.63,1.66,3.52,1.01,5.5c-0.09,0.27-0.2,0.54-0.28,0.82c-2.96,9.79-5.92,19.58-8.88,29.36
					c-0.31,1.02-0.79,1.89-1.49,2.59c-0.73,0.74-1.5,1.08-1.77,1.2c-2.37,1.03-5.5,0.38-7.41-1.37c-0.67-0.62-1-1.19-1.75-2.66
					c-2.12-4.13-3.12-6.59-4.11-8.61c-0.91-1.85-0.41-0.59-4.15-6.89c-1.07-1.81-2.4-4.11-4.35-7.65
					C31.03,63.06,30.85,62.73,30.73,62.51z"/>
				<path class="st5" d="M48.95,67.66c-0.72,0.41-1.45,0.81-2.17,1.22c-0.34-0.48-0.87-1.23-1.5-2.16
					c-3.64-5.37-5.93-10.19-8.92-15.31c-1.43-2.45-2.87-4.89-4.29-7.34c-0.59-1.02-1.51-1.45-2.65-1.44
					c-1.17,0.01-1.99,0.6-2.5,1.59c-0.15,0.29-0.25,0.6-0.34,0.91c-2.96,9.77-5.91,19.54-8.87,29.31c-0.14,0.46-0.36,0.92-0.43,1.39
					c-0.23,1.44,0.47,2.56,2,3.24c0.84,0.38,1.66,0.55,2.48,0.45c0.73-0.09,1.24-0.36,1.52-0.51c2.24-1.18,5.01-2.87,5.53-3.2
					c0.46,0.88,0.93,1.77,1.39,2.65c-0.88,0.48-2.2,1.19-3.83,2.05c-1.13,0.59-1.71,0.87-1.81,0.94c-2.45,1.58-6.13,0.7-8.08-0.96
					c-1.94-1.66-2.58-3.95-1.69-6.25c0.1-0.27,0.2-0.54,0.28-0.82c2.97-9.8,5.93-19.61,8.9-29.41c0.8-2.66,3.04-4.26,5.79-4.08
					c2.04,0.14,3.67,1,4.72,2.82c3.91,6.76,5.98,10.07,7.43,12.73c1.15,2.11,2.13,3.8,3.5,6.17C46.89,64.21,48.13,66.29,48.95,67.66
					z"/>
			</g>
			<g>
				<g>
					<path class="st6" d="M30.36,62.69c0.9-0.43,1.68-0.8,2.51-1.2c0.72,1.28,1.48,2.65,2.25,4.02c3.25,5.78,6.51,11.56,9.76,17.35
						c0.73,1.29,1.43,2.6,2.18,3.88c0.91,1.56,3.16,1.84,4.36,0.49c0.4-0.45,0.72-1.05,0.89-1.63c2.99-9.8,5.95-19.61,8.91-29.41
						c0.13-0.41,0.31-0.81,0.39-1.23c0.27-1.35-0.25-2.41-1.57-3.14c-1.36-0.75-2.73-0.93-4.17-0.11c-1.65,0.94-3.35,1.79-5.02,2.69
						c-0.17,0.09-0.31,0.25-0.42,0.34c-0.5-0.91-0.92-1.69-1.36-2.49c1.95-1.04,3.91-2.11,5.91-3.12c0.58-0.3,1.24-0.53,1.89-0.6
						c2.46-0.28,4.58,0.51,6.24,2.35c1.45,1.61,1.58,3.49,0.93,5.47c-0.09,0.27-0.2,0.54-0.28,0.82
						c-2.96,9.79-5.92,19.58-8.88,29.36c-0.52,1.72-1.52,3.04-3.2,3.81c-2.61,1.2-5.91-0.16-7.01-2.21
						c-1.86-3.46-3.82-6.85-5.74-10.27c-2.7-4.81-5.4-9.62-8.1-14.42C30.71,63.2,30.56,62.99,30.36,62.69z"/>
					<path class="st6" d="M48.34,68c-0.78,0.44-1.54,0.87-2.35,1.32c-0.54-0.96-1.08-1.88-1.59-2.8
						c-2.84-5.06-5.67-10.13-8.51-15.19c-1.36-2.43-2.74-4.85-4.09-7.28c-0.56-1.02-1.45-1.43-2.56-1.41
						c-1.14,0.02-1.94,0.62-2.44,1.61c-0.15,0.29-0.24,0.6-0.34,0.91c-2.96,9.77-5.91,19.54-8.87,29.31
						c-0.14,0.46-0.35,0.92-0.43,1.39c-0.24,1.44,0.43,2.55,1.91,3.22c1.31,0.59,2.57,0.66,3.88-0.09c1.8-1.04,3.66-1.97,5.48-2.94
						c0.43,0.81,0.84,1.59,1.27,2.4c-1.22,0.65-2.5,1.33-3.77,2c-0.59,0.31-1.21,0.58-1.77,0.95c-2.39,1.6-5.95,0.76-7.82-0.89
						c-1.86-1.64-2.46-3.92-1.58-6.22c0.1-0.27,0.2-0.54,0.28-0.82c2.97-9.8,5.93-19.61,8.9-29.41c0.8-2.66,2.99-4.28,5.65-4.12
						c1.98,0.12,3.55,0.97,4.55,2.77c2.34,4.22,4.72,8.42,7.08,12.63c2.31,4.11,4.63,8.22,6.94,12.33
						C48.23,67.77,48.27,67.87,48.34,68z"/>
				</g>
			</g>
		</g>
	</g>
	<g>
		<g class="st0">
			<path class="st7" d="M30.12,62.83c0.85-0.41,1.71-0.82,2.56-1.23c1.09,1.88,1.92,3.4,2.41,4.33c3.55,6.6,7.45,13.01,11.16,19.52
				c0.22,0.38,0.96,1.69,2.44,2.37c0.13,0.06,2.16,0.97,3.42,0.04c0.68-0.5,0.82-1.35,0.91-1.63c2.99-9.8,5.95-19.61,8.91-29.41
				c0.13-0.41,0.31-0.81,0.4-1.23c0.11-0.57,0.08-1.09-0.1-1.56c-0.17-0.43-0.47-0.9-1.54-1.6c-0.45-0.29-1.76-1.16-3.25-1.51
				c-3.72-0.88-7.68,1.59-8.07,1.84c3.05-1.23,4.91-2.3,6.07-3.08c0.27-0.18,0.75-0.51,1.47-0.71c1.7-0.46,3.25,0.21,4.15,0.6
				c0.65,0.28,1.74,0.82,2.78,1.94c1.51,1.63,1.66,3.52,1.01,5.5c-0.09,0.27-0.2,0.54-0.28,0.82c-2.96,9.79-5.92,19.58-8.88,29.36
				c-0.31,1.02-0.79,1.89-1.49,2.59c-0.73,0.74-1.5,1.08-1.77,1.2c-2.37,1.03-5.5,0.38-7.41-1.37c-0.67-0.62-1-1.19-1.75-2.66
				c-2.12-4.13-3.12-6.59-4.11-8.61c-0.91-1.85-0.41-0.59-4.15-6.89c-1.07-1.81-2.4-4.11-4.35-7.65
				C30.42,63.38,30.24,63.04,30.12,62.83z"/>
			<path class="st7" d="M48.34,67.97c-0.72,0.41-1.45,0.81-2.17,1.22c-0.34-0.48-0.87-1.23-1.5-2.16
				c-3.64-5.37-5.93-10.19-8.92-15.31c-1.43-2.45-2.87-4.89-4.29-7.34c-0.59-1.02-1.51-1.45-2.65-1.44c-1.17,0.01-1.99,0.6-2.5,1.59
				c-0.15,0.29-0.25,0.6-0.34,0.91c-2.96,9.77-5.91,19.54-8.87,29.31c-0.14,0.46-0.36,0.92-0.43,1.39c-0.23,1.44,0.47,2.56,2,3.24
				c0.84,0.38,1.66,0.55,2.48,0.45c0.73-0.09,1.24-0.36,1.52-0.51c2.24-1.18,5.01-2.87,5.53-3.2c0.46,0.88,0.93,1.77,1.39,2.65
				c-0.88,0.48-2.2,1.19-3.83,2.05c-1.13,0.59-1.71,0.87-1.81,0.94c-2.45,1.58-6.13,0.7-8.08-0.96c-1.94-1.66-2.58-3.95-1.69-6.25
				c0.1-0.27,0.2-0.54,0.28-0.82c2.97-9.8,5.93-19.61,8.9-29.41c0.8-2.66,3.04-4.26,5.79-4.08c2.04,0.14,3.67,1,4.72,2.82
				c3.91,6.76,5.98,10.07,7.43,12.73c1.15,2.11,2.13,3.8,3.5,6.17C46.28,64.52,47.52,66.6,48.34,67.97z"/>
		</g>
		<g>
			<g>
				<path class="st8" d="M29.75,63c0.9-0.43,1.68-0.8,2.51-1.2c0.72,1.28,1.48,2.65,2.25,4.02c3.25,5.78,6.51,11.56,9.76,17.35
					c0.73,1.29,1.43,2.6,2.18,3.88c0.91,1.56,3.16,1.84,4.36,0.49c0.4-0.45,0.72-1.05,0.89-1.63c2.99-9.8,5.95-19.61,8.91-29.41
					c0.13-0.41,0.31-0.81,0.39-1.23c0.27-1.35-0.25-2.41-1.57-3.14c-1.36-0.75-2.73-0.93-4.17-0.11c-1.65,0.94-3.35,1.79-5.02,2.69
					c-0.17,0.09-0.31,0.25-0.42,0.34c-0.5-0.91-0.92-1.69-1.36-2.49c1.95-1.04,3.91-2.11,5.91-3.12c0.58-0.3,1.24-0.53,1.89-0.6
					c2.46-0.28,4.58,0.51,6.24,2.35c1.45,1.61,1.58,3.49,0.93,5.47c-0.09,0.27-0.2,0.54-0.28,0.82c-2.96,9.79-5.92,19.58-8.88,29.36
					c-0.52,1.72-1.52,3.04-3.2,3.81c-2.61,1.2-5.91-0.16-7.01-2.21c-1.86-3.46-3.82-6.85-5.74-10.27c-2.7-4.81-5.4-9.62-8.1-14.42
					C30.09,63.51,29.95,63.31,29.75,63z"/>
				<path class="st8" d="M47.73,68.32c-0.78,0.44-1.54,0.87-2.35,1.32c-0.54-0.96-1.08-1.88-1.59-2.8
					c-2.84-5.06-5.67-10.13-8.51-15.19c-1.36-2.43-2.74-4.85-4.09-7.28c-0.56-1.02-1.45-1.43-2.56-1.41
					c-1.14,0.02-1.94,0.62-2.44,1.61c-0.15,0.29-0.24,0.6-0.34,0.91c-2.96,9.77-5.91,19.54-8.87,29.31
					c-0.14,0.46-0.35,0.92-0.43,1.39c-0.24,1.44,0.43,2.55,1.91,3.22c1.31,0.59,2.57,0.66,3.88-0.09c1.8-1.04,3.66-1.97,5.48-2.94
					c0.43,0.81,0.84,1.59,1.27,2.4c-1.22,0.65-2.5,1.33-3.77,2c-0.59,0.31-1.21,0.58-1.77,0.95c-2.39,1.6-5.95,0.76-7.82-0.89
					c-1.86-1.64-2.46-3.92-1.58-6.22c0.1-0.27,0.2-0.54,0.28-0.82c2.97-9.8,5.93-19.61,8.9-29.41c0.8-2.66,2.99-4.28,5.65-4.12
					c1.98,0.12,3.55,0.97,4.55,2.77c2.34,4.22,4.72,8.42,7.08,12.63c2.31,4.11,4.63,8.22,6.94,12.33
					C47.62,68.08,47.66,68.18,47.73,68.32z"/>
			</g>
		</g>
	</g>
</g>
<text transform="matrix(1 0 0 1 61.1455 90.7766)"><tspan x="0" y="0" class="st8 st3 st4">a</tspan><tspan x="27" y="0" class="st8 st3 st4">s</tspan><tspan x="49.82" y="0" class="st8 st3 st4">w</tspan><tspan x="91.24" y="0" class="st8 st3 st4">a</tspan></text>
<g>
	<polyline class="st9" points="193.18,71.07 217.21,71.07 219.22,65.75 192.46,65.75 190.59,60.57 183.68,60.57 	"/>
	<polyline class="st10" points="216.63,82.01 196.34,82.01 194.9,76.54 217.93,76.54 	"/>
	<circle class="st9" cx="210.89" cy="88.09" r="2.48"/>
	<circle class="st9" cx="200.1" cy="88.09" r="2.48"/>
</g>
<g>
	<text transform="matrix(1 0 0 1 230 90.8147)" class="st11 st3 st12">Soko</text>
	<text transform="matrix(1 0 0 1 229.7587 90.6467)" class="st6 st3 st12">Soko</text>
</g>
</svg>
